<?xml version="1.0" encoding="utf-8"?>
<!-- Generator: Adobe Illustrator 15.0.2, SVG Export Plug-In . SVG Version: 6.00 Build 0)  -->
<!DOCTYPE svg PUBLIC "-//W3C//DTD SVG 1.1//EN" "http://www.w3.org/Graphics/SVG/1.1/DTD/svg11.dtd">
<svg version="1.1" id="Layer_1" xmlns="http://www.w3.org/2000/svg" xmlns:xlink="http://www.w3.org/1999/xlink" x="0px" y="0px"
	 width="841.89px" height="269.986px" viewBox="0 0 841.89 269.986" enable-background="new 0 0 841.89 269.986"
	 xml:space="preserve">
<path d="M708.263,112.035c-28.446,0-47.599,32.169-48.592,58.482c-4.831,8.615-14.023,21.854-21.115,23.549
	c1.087-19.963,25.401-104.713,33.572-127.032c-3.635-1.271-7.624-1.995-11.252-1.995c-6.716,0-12.339,2.542-14.88,9.62
	c-2.364,6.893-7.986,25.4-13.247,45.726c-4.175-3.99-8.172-4.537-12.346-4.537c-22.06,0-41.588,29.442-45.922,54.319
	c-4.77,8.602-14.119,22.181-21.313,23.899c2.18-14.88,16.874-56.438,16.874-68.961c0-7.078-4.898-11.615-14.694-11.615
	c-10.528,0-23.952,9.073-35.567,27.218c1.633-6.531,2.535-12.153,2.535-15.604c0-7.078-4.898-10.167-10.706-10.167
	c-9.649,0-19.227,7.245-25.047,14.491c-0.54-8.926-6.038-15.939-17.735-15.939c-18.723,0-45.92,21.039-50.5,51.778
	c-4.379,8.563-15.242,27.704-25.739,27.704c-7.44,0-10.343-7.802-10.343-18.508c0-22.142,12.7-56.076,24.499-56.076
	c0.901,0,1.995,0,2.904,0.362c-4.721,3.812-8.711,8.71-8.711,16.15c0,7.078,5.438,10.713,11.429,10.713
	c7.078,0,14.88-5.084,14.88-15.25c0-10.344-9.073-16.328-18.692-16.328c-28.781,0-49.801,31.059-52.059,56.671
	c-4.438-16.594-27.009-24.617-27.009-40.159c0-6.9,5.807-12.161,15.966-12.161c0.909,0,1.995,0,2.903,0.362
	c-4.721,3.812-8.71,8.71-8.71,16.15c0,7.078,5.445,10.713,11.437,10.713c7.078,0,14.88-5.084,14.88-15.25
	c0-11.977-8.896-16.875-19.601-16.875c-16.151,0-36.661,11.43-36.661,27.403c0,16.513,27.226,29.213,27.226,41.196
	c0,10.344-8.349,15.966-16.52,15.966c-8.164,0-16.15-5.444-16.15-16.696c0-6.709,3.813-13.972,11.799-17.961
	c-2.357-3.089-5.26-4.175-8.164-4.175c-6.65,0-11.245,3.929-14.061,9.368c-5.069,9.793-16.104,25.872-25.431,25.872
	c-7.986,0-11.067-6.901-11.067-16.513c0-3.088,0.362-6.539,0.909-10.166c1.995,0.185,4.167,0.361,6.169,0.361
	c23.406,0,38.285-21.232,38.285-37.199c0-9.62-5.445-17.421-17.783-17.421c-10.687,0-24.133,6.855-34.561,18.454
	c0.02-0.349,0.032-0.701,0.032-1.063c0-10.706-8.533-16.697-17.059-16.697c-9.073,0-16.335,7.263-21.596,15.973
	c0.185-1.633,0.362-3.088,0.362-4.536c0-7.078-6.354-10.166-12.161-10.166c-8.435,0-16.818,5.54-22.682,11.776
	c-1.616-8.43-9.786-13.23-18.398-13.23c-30.484,0-52.264,34.843-52.264,61.152c0,15.974,7.802,28.674,26.679,28.674
	c6.893,0,14.156-2.541,20.502-7.439c10.344-7.987,17.791-22.683,17.791-28.489c0-1.633-0.731-2.726-2.904-2.726
	c-4.359,8.532-15.249,27.764-25.77,27.764c-7.44,0-10.343-7.802-10.343-18.508c0-22.142,12.7-56.076,24.499-56.076
	c0.901,0,1.995,0,2.904,0.362c-4.721,3.812-8.711,8.71-8.711,16.15c0,7.078,5.438,10.713,11.43,10.713
	c4.836,0,9.838-2.48,12.801-7.121c3.377-5.289,8.724-10.448,13.038-10.842c0,6.169-15.064,53.896-15.064,66.42
	c0,6.893,3.635,9.072,8.349,9.072c4.359,0,10.89-1.994,14.155-3.627c3.266-20.325,16.151-78.219,36.838-80.213
	c-4.714,3.812-8.711,8.71-8.711,16.15c0,7.078,5.445,10.713,11.437,10.713c1.883,0,3.816-0.364,5.642-1.084
	c-4.547,8.502-7.403,18.385-7.403,29.232c0,19.963,12.338,29.768,26.132,29.768c7.078,0,14.518-2.543,20.864-7.625
	c4.233-3.269,7.977-7.66,10.926-12.106c2.001,14.374,14.224,20.597,27.657,20.597c16.233,0,34.093-9.034,37.391-23.625
	c1.838,12.97,9.875,22.539,26.259,22.539c6.893,0,14.155-2.541,20.502-7.439c6.126-4.728,11.232-11.805,14.38-17.998
	c1.596,17.172,13.136,25.622,25.938,25.622c7.078,0,14.519-2.542,20.864-7.624c10.344-7.987,17.783-22.683,17.783-28.489
	c0-1.633-0.725-2.726-2.903-2.726c-4.353,8.532-16.69,29.219-27.218,29.219c-7.986,0-11.068-6.9-11.068-16.512
	c0-3.088,0.362-6.539,0.909-10.166c1.995,0.185,4.167,0.361,6.169,0.361c17.579,0,30.066-12.098,35.617-24.705
	c2.669-6.065,10.313-15.766,16.237-16.306c0,6.169-15.974,54.259-15.974,66.782c0,6.894,3.267,8.896,7.625,8.896
	c4.721,0,10.528-2.364,14.518-3.635c2.719-15.604,17.061-72.589,37.199-72.589c1.456,0,2.181,0.909,2.181,2.903
	c0,7.809-14.519,49.73-14.519,61.344c0,7.979,6.354,13.247,15.242,13.247c10.849,0,21.182-10.718,27.27-20.667
	c0.941,11.857,6.933,20.482,20.188,20.482c10.705,0,19.416-10.159,27.041-24.314v1.633c0,13.609,2.903,22.866,10.89,22.866
	c11.637,0,22.679-12.329,28.525-22.815c2.389,13.168,10.674,22.992,26.303,22.992c29.221,0,48.637-33.934,48.637-60.612
	C735.305,126.375,727.133,112.035,708.263,112.035z M281.646,120.966c2.542,0,4.359,1.271,4.359,3.99
	c0,13.616-7.44,38.655-25.408,38.655h-1.633C263.316,143.47,274.569,120.966,281.646,120.966z M444.513,163.574h-1.633
	c4.352-20.14,15.604-42.644,22.682-42.644c2.542,0,4.359,1.27,4.359,3.989C469.921,138.536,462.482,163.574,444.513,163.574z
	 M622.399,166.84c-4.536,14.702-14.333,25.408-19.417,25.408c-2.719,0-3.812-3.813-3.812-9.62c0-18.869,12.16-59.157,25.046-59.157
	c2.18,0,4.536,1.086,6.9,3.081C627.482,140.893,624.216,155.41,622.399,166.84z M687.578,196.969c-4.175,0-5.992-4.721-5.992-11.799
	c0-21.958,16.335-66.597,26.678-66.597c4.175,0,5.985,4.714,5.985,11.792C714.249,152.323,697.92,196.969,687.578,196.969z"/>
</svg>
