<?xml version="1.0" encoding="utf-8"?>
<!-- Generator: Adobe Illustrator 15.0.2, SVG Export Plug-In . SVG Version: 6.00 Build 0)  -->
<!DOCTYPE svg PUBLIC "-//W3C//DTD SVG 1.1//EN" "http://www.w3.org/Graphics/SVG/1.1/DTD/svg11.dtd">
<svg version="1.1" id="Layer_1" xmlns="http://www.w3.org/2000/svg" xmlns:xlink="http://www.w3.org/1999/xlink" x="0px" y="0px"
	 width="841.89px" height="269.987px" viewBox="0 0 841.89 269.987" enable-background="new 0 0 841.89 269.987"
	 xml:space="preserve">
<path d="M711.006,112.197c-27.071,0-45.717,29.131-48.312,54.63c-3.794,7.804-14.834,25.271-23.06,27.237
	c1.089-19.963,25.406-104.711,33.572-127.032c-3.63-1.271-7.622-1.997-11.252-1.997c-6.714,0-12.34,2.541-14.88,9.618
	c-2.359,6.896-7.985,25.406-13.248,45.731c-4.174-3.993-8.166-4.537-12.34-4.537c-21.463,0-40.512,27.853-45.524,52.269
	c-4.286,8.287-14.614,24.082-22.413,25.947c2.178-14.881,16.877-56.439,16.877-68.96c0-7.078-4.899-11.614-14.699-11.614
	c-10.525,0-23.954,9.073-35.568,27.221c1.634-6.533,2.541-12.159,2.541-15.606c0-7.078-4.9-10.163-10.707-10.163
	c-9.636,0-19.201,7.223-25.023,14.459c-0.551-8.91-6.044-15.911-17.729-15.911c-18.728,0-45.916,21.043-50.496,51.784
	c-4.376,8.561-15.236,27.701-25.736,27.701c-7.44,0-10.344-7.803-10.344-18.51c0-22.14,12.703-56.076,24.499-56.076
	c0.907,0,1.996,0,2.903,0.363c-4.718,3.811-8.71,8.71-8.71,16.151c0,7.078,5.444,10.707,11.433,10.707
	c7.078,0,14.88-5.082,14.88-15.244c0-10.344-9.073-16.333-18.691-16.333c-29.482,0-50.815,32.582-52.19,58.526
	c-3.172-17.87-27.418-25.9-27.418-42.013c0-6.896,5.807-12.159,15.969-12.159c0.908,0,1.997,0,2.904,0.363
	c-4.718,3.811-8.711,8.71-8.711,16.151c0,7.078,5.444,10.707,11.433,10.707c7.077,0,14.88-5.082,14.88-15.244
	c0-11.978-8.892-16.877-19.599-16.877c-16.151,0-36.658,11.433-36.658,27.402c0,16.514,27.221,29.217,27.221,41.194
	c0,10.344-8.348,15.971-16.514,15.971c-8.167,0-16.151-5.445-16.151-16.695c0-6.715,3.811-13.975,11.796-17.967
	c-2.359-3.085-5.263-4.174-8.167-4.174c-8.106,0-13.401,5.723-15.496,13.229c-5.776,9.561-15.018,21.977-23.173,21.977
	c-7.985,0-11.07-6.895-11.07-16.514c0-3.084,0.363-6.533,0.907-10.162c1.996,0.182,4.174,0.363,6.17,0.363
	c23.41,0,38.291-21.233,38.291-37.202c0-9.618-5.444-17.421-17.784-17.421c-12.516,0-28.807,9.408-39.611,24.818
	c1.232-2.167,1.977-4.811,1.977-7.941c0-10.707-8.529-16.696-17.059-16.696c-9.074,0-16.333,7.259-21.595,15.97
	c0.182-1.633,0.363-3.085,0.363-4.537c0-7.078-6.352-10.163-12.159-10.163c-8.624,0-17.189,5.787-23.068,12.189
	c-1.681-8.34-9.794-13.097-18.357-13.097c-30.487,0-52.264,34.843-52.264,61.157c0,15.969,7.803,28.672,26.677,28.672
	c6.896,0,14.155-2.541,20.506-7.439c10.344-7.986,17.784-22.686,17.784-28.492c0-1.633-0.726-2.723-2.903-2.723
	c-4.355,8.529-15.244,27.766-25.77,27.766c-7.44,0-10.344-7.803-10.344-18.51c0-22.14,12.703-56.076,24.499-56.076
	c0.907,0,1.996,0,2.903,0.363c-4.718,3.811-8.71,8.71-8.71,16.151c0,7.078,5.444,10.707,11.433,10.707
	c4.917,0,10.177-2.458,12.935-7.362c3.572-5.26,8.849-10.749,13.247-11.148c0,6.17-15.062,53.898-15.062,66.419
	c0,6.896,3.629,9.074,8.348,9.074c4.355,0,10.888-1.996,14.155-3.631c3.267-20.324,16.151-78.214,36.839-80.21
	c-4.718,3.811-8.71,8.71-8.71,16.151c0,7.078,5.444,10.707,11.433,10.707c4.277,0,8.808-1.869,11.732-5.58
	c-6.249,9.534-10.393,21.192-10.393,34.252c0,19.963,12.34,29.762,26.132,29.762c7.078,0,14.518-2.541,20.87-7.621
	c3.919-3.027,7.419-7.018,10.258-11.121c2.397,13.699,14.367,19.648,27.504,19.648c16.884,0,35.527-9.777,37.711-25.414
	c1.337,13.867,9.347,24.326,26.473,24.326c6.896,0,14.155-2.541,20.506-7.439c6.125-4.729,11.215-11.803,14.362-18
	c1.594,17.174,13.137,25.621,25.938,25.621c7.078,0,14.519-2.541,20.87-7.621c10.344-7.986,17.784-22.686,17.784-28.492
	c0-1.633-0.726-2.723-2.903-2.723c-4.355,8.529-16.696,29.217-27.222,29.217c-7.984,0-11.069-6.895-11.069-16.514
	c0-3.084,0.362-6.533,0.907-10.162c1.996,0.182,4.174,0.363,6.17,0.363c17.71,0,30.531-12.152,35.729-24.983
	c2.896-6.026,10.264-15.5,16.098-16.03c0,6.17-15.97,54.261-15.97,66.783c0,6.895,3.267,8.891,7.622,8.891
	c4.718,0,10.525-2.357,14.518-3.629c2.722-15.605,17.059-72.589,37.202-72.589c1.451,0,2.178,0.907,2.178,2.903
	c0,7.804-14.519,49.725-14.519,61.338c0,7.984,6.352,13.248,15.244,13.248c11.231,0,21.909-11.484,27.896-21.715
	c0.667,12.396,6.617,21.533,20.26,21.533c10.707,0,19.417-10.162,27.039-24.318v1.635c0,13.609,2.903,22.865,10.889,22.865
	c12.555,0,24.412-14.348,29.804-25.252c1.736,14.449,10.049,25.592,26.687,25.592c29.218,0,48.635-33.936,48.635-60.611
	C738.045,126.533,729.879,112.197,711.006,112.197z M282.352,120.929c2.541,0,4.355,1.271,4.355,3.993
	c0,13.61-7.44,38.654-25.406,38.654h-1.633C264.023,143.432,275.274,120.929,282.352,120.929z M444.923,163.576h-1.634
	c4.355-20.144,15.606-42.646,22.685-42.646c2.541,0,4.355,1.271,4.355,3.993C470.329,138.532,462.889,163.576,444.923,163.576z
	 M623.483,166.842c-4.537,14.7-14.337,25.405-19.418,25.405c-2.722,0-3.811-3.811-3.811-9.617c0-18.873,12.158-59.16,25.043-59.16
	c2.178,0,4.537,1.089,6.896,3.085C628.564,140.892,625.298,155.409,623.483,166.842z M690.317,197.126
	c-4.174,0-5.988-4.719-5.988-11.797c0-21.957,16.333-66.6,26.677-66.6c4.174,0,5.988,4.718,5.988,11.796
	C716.994,152.484,700.662,197.126,690.317,197.126z"/>
</svg>
